<svg width="267" height="44" fill="none" xmlns="http://www.w3.org/2000/svg"><path d="M17.816 11.517v20.967H13.77v-8.948H4.26v8.948H.187V11.517H4.26v8.476h9.509v-8.476h4.046zm20.41 17.394v3.573h-14.56V11.517H37.96v3.573H27.742v5.05h8.83v3.308h-8.83v5.463h10.483zm10.352-17.394h4.135l7.707 20.967h-4.193l-1.95-5.227h-7.323l-1.92 5.227h-4.193l7.737-20.967zm4.962 12.876l-2.894-8.653-3.013 8.653h5.907zm10.657 8.091V11.517h4.075v17.394h10.69v3.573H64.197zM95.572 15.09H88.87v17.394h-4.046V15.09H78.12v-3.573h17.453v3.573zm21.71-3.573v20.967h-4.046v-8.948h-9.509v8.948h-4.076V11.517h4.076v8.476h9.509v-8.476h4.046zm37.044 20.967V11.517h7.619c2.284 0 4.194.473 5.729 1.418 1.536.925 2.688 2.185 3.455 3.78.768 1.575 1.152 3.327 1.152 5.256 0 2.127-.423 3.977-1.27 5.552a8.96 8.96 0 01-3.602 3.662c-1.536.866-3.357 1.3-5.464 1.3h-7.619zm13.85-10.513c0-1.358-.246-2.55-.738-3.573-.492-1.043-1.201-1.85-2.126-2.421-.925-.591-2.048-.886-3.367-.886h-3.544v13.82h3.544c1.339 0 2.471-.295 3.396-.886a5.733 5.733 0 002.097-2.48c.492-1.064.738-2.255.738-3.574zm23.325 6.94v3.573h-14.559V11.517h14.293v3.574h-10.218v5.05h8.83v3.307h-8.83v5.463h10.484zm17.145-11.9c-.138-.139-.394-.326-.768-.562a7.51 7.51 0 00-1.329-.68 12.055 12.055 0 00-1.683-.56 6.637 6.637 0 00-1.861-.266c-1.102 0-1.938.207-2.51.62-.551.413-.827.994-.827 1.742 0 .571.178 1.024.532 1.359.354.334.886.62 1.595.856.708.236 1.594.492 2.658.768 1.378.335 2.569.748 3.573 1.24 1.024.473 1.801 1.103 2.333 1.89.551.768.827 1.792.827 3.072 0 1.122-.207 2.087-.621 2.894a5.19 5.19 0 01-1.712 1.92 7.857 7.857 0 01-2.481 1.092c-.925.216-1.909.325-2.953.325-1.043 0-2.087-.109-3.13-.325a17.214 17.214 0 01-3.013-.916 14.428 14.428 0 01-2.657-1.476l1.801-3.514c.177.177.492.413.945.708a15.75 15.75 0 001.654.857c.649.275 1.358.512 2.126.709a9.36 9.36 0 002.333.295c1.103 0 1.939-.187 2.51-.561.571-.374.857-.906.857-1.595 0-.63-.227-1.122-.68-1.476-.452-.355-1.082-.66-1.89-.916a59.803 59.803 0 00-2.864-.886c-1.319-.374-2.422-.787-3.308-1.24-.886-.473-1.545-1.063-1.978-1.772-.433-.709-.65-1.595-.65-2.658 0-1.437.335-2.638 1.004-3.603.689-.984 1.615-1.722 2.776-2.215 1.162-.511 2.451-.767 3.869-.767a11.4 11.4 0 012.776.325c.885.216 1.712.502 2.48.856s1.457.738 2.067 1.152l-1.801 3.307zm7.096 15.473V11.517h4.075v20.967h-4.075zm18.638.148a9.294 9.294 0 01-3.869-.827 10.41 10.41 0 01-3.189-2.274 10.927 10.927 0 01-2.126-3.425c-.512-1.3-.768-2.707-.768-4.223 0-1.437.256-2.786.768-4.046a10.385 10.385 0 012.155-3.367 10.203 10.203 0 013.249-2.274c1.24-.55 2.589-.826 4.046-.826 1.969 0 3.652.423 5.05 1.27 1.417.826 2.48 1.929 3.189 3.307l-3.042 2.244c-.531-1.043-1.279-1.84-2.244-2.392a6.046 6.046 0 00-3.101-.827c-.886 0-1.693.188-2.422.562a5.92 5.92 0 00-1.89 1.535 7.316 7.316 0 00-1.24 2.245 8.645 8.645 0 00-.413 2.687c0 1.004.147 1.93.443 2.776a7.074 7.074 0 001.299 2.215 6.692 6.692 0 001.979 1.506c.748.354 1.575.531 2.48.531a6.04 6.04 0 003.042-.827c.985-.55 1.9-1.358 2.746-2.421v4.016c-1.752 1.89-3.799 2.835-6.142 2.835zm5.847-7.944h-4.223v-2.982h7.59v10.778h-3.367v-7.796zm12.392-5.67v13.466h-4.075V11.517h3.248l10.838 13.82v-13.79h4.075v20.938h-3.396l-10.69-13.467z" fill="#0B0B0B"/><path fill-rule="evenodd" clip-rule="evenodd" d="M135.081 13.082a8.653 8.653 0 00-8.155 6.555h3.972l.447.497.723.803 1.602-4.177 1.411-3.679zm-8.361 9.555a8.65 8.65 0 008.991 7.73l-.586-3.544-.633-3.83-.5 1.306-.877 2.287-1.639-1.82-1.914-2.128h-2.842zm9.844 7.65a8.652 8.652 0 007.358-7.65h-3.872l-2.08 4.563-1.406 3.086zm7.151-10.65a8.654 8.654 0 00-7.819-6.54l.655 3.955.731 4.424.438-.96.4-.878h5.595z" fill="#FE0000"/></svg>